<mxfile host="app.diagrams.net" modified="2024-01-28T05:52:27.321Z" agent="Mozilla/5.0 (X11; Linux x86_64) AppleWebKit/537.36 (KHTML, like Gecko) Chrome/119.0.0.0 Safari/537.36" version="23.0.2" etag="i3nECAwuqfYluKR7hn8Z" type="github">
  <diagram name="Page-1" id="a5WK_7i3G-UO_9n8uhxj">
    <mxGraphModel>
      <root>
        <mxCell id="0" />
        <mxCell id="1" parent="0" />
      </root>
    </mxGraphModel>
  </diagram>
</mxfile>
